<svg width="117" height="23" viewBox="0 0 117 23" fill="none" xmlns="http://www.w3.org/2000/svg">
<path d="M28.504 17V6.12H32.184C33.4853 6.12 34.4773 6.48267 35.16 7.208C35.8427 7.93333 36.184 9 36.184 10.408V12.696C36.184 14.1147 35.8427 15.1867 35.16 15.912C34.4773 16.6373 33.4853 17 32.184 17H28.504ZM32.104 7.96H30.424V15.16H32.104C32.8613 15.16 33.4 14.9733 33.72 14.6C34.0507 14.2267 34.216 13.592 34.216 12.696V10.408C34.216 9.52267 34.0507 8.89333 33.72 8.52C33.4 8.14667 32.8613 7.96 32.104 7.96ZM43.2027 16.536C42.6481 16.76 42.1254 16.92 41.6347 17.016C41.1441 17.112 40.6801 17.16 40.2427 17.16C39.0374 17.16 38.1254 16.8187 37.5067 16.136C36.8881 15.4533 36.5787 14.5467 36.5787 13.416V12.456C36.5787 11.6987 36.7174 11.0427 36.9947 10.488C37.2721 9.93333 37.6667 9.50133 38.1787 9.192C38.6907 8.88267 39.2934 8.728 39.9867 8.728C40.5521 8.728 41.0801 8.84533 41.5707 9.08C42.0721 9.304 42.4774 9.66133 42.7867 10.152C43.1067 10.632 43.2667 11.2507 43.2667 12.008C43.2667 12.232 43.2507 12.472 43.2188 12.728C43.1867 12.9733 43.1334 13.2347 43.0587 13.512H38.3547C38.3761 14.1733 38.5414 14.6693 38.8507 15C39.1601 15.3307 39.6561 15.496 40.3387 15.496C40.7014 15.496 41.0747 15.4533 41.4587 15.368C41.8534 15.2827 42.2587 15.1547 42.6747 14.984L43.2027 16.536ZM39.9867 10.28C39.4961 10.28 39.1121 10.44 38.8347 10.76C38.5681 11.0693 38.4134 11.5173 38.3707 12.104H41.4427C41.4534 12.0507 41.4587 12.0027 41.4587 11.96C41.4587 11.9067 41.4587 11.8587 41.4587 11.816C41.4587 11.304 41.3147 10.92 41.0267 10.664C40.7387 10.408 40.3921 10.28 39.9867 10.28ZM50.1065 16.536C49.5518 16.76 49.0292 16.92 48.5385 17.016C48.0478 17.112 47.5838 17.16 47.1465 17.16C45.9412 17.16 45.0292 16.8187 44.4105 16.136C43.7918 15.4533 43.4825 14.5467 43.4825 13.416V12.456C43.4825 11.6987 43.6212 11.0427 43.8985 10.488C44.1758 9.93333 44.5705 9.50133 45.0825 9.192C45.5945 8.88267 46.1972 8.728 46.8905 8.728C47.4558 8.728 47.9838 8.84533 48.4745 9.08C48.9758 9.304 49.3812 9.66133 49.6905 10.152C50.0105 10.632 50.1705 11.2507 50.1705 12.008C50.1705 12.232 50.1545 12.472 50.1225 12.728C50.0905 12.9733 50.0372 13.2347 49.9625 13.512H45.2585C45.2798 14.1733 45.4452 14.6693 45.7545 15C46.0638 15.3307 46.5598 15.496 47.2425 15.496C47.6052 15.496 47.9785 15.4533 48.3625 15.368C48.7572 15.2827 49.1625 15.1547 49.5785 14.984L50.1065 16.536ZM46.8905 10.28C46.3998 10.28 46.0158 10.44 45.7385 10.76C45.4718 11.0693 45.3172 11.5173 45.2745 12.104H48.3465C48.3572 12.0507 48.3625 12.0027 48.3625 11.96C48.3625 11.9067 48.3625 11.8587 48.3625 11.816C48.3625 11.304 48.2185 10.92 47.9305 10.664C47.6425 10.408 47.2958 10.28 46.8905 10.28ZM54.3223 17.16C54.0556 17.16 53.7836 17.1333 53.5063 17.08C53.2396 17.0267 52.9676 16.952 52.6903 16.856V20.408H50.8503V8.888H52.5943V9.992C53.0956 9.49067 53.5223 9.15467 53.8743 8.984C54.2263 8.81333 54.5943 8.728 54.9783 8.728C55.8636 8.728 56.5463 9.05867 57.0263 9.72C57.5063 10.3813 57.7463 11.3093 57.7463 12.504V13.368C57.7463 14.5307 57.4529 15.4533 56.8663 16.136C56.2796 16.8187 55.4316 17.16 54.3223 17.16ZM54.4823 10.44C54.2369 10.44 53.9756 10.5147 53.6983 10.664C53.4316 10.8027 53.0956 11.0747 52.6903 11.48V15.192C53.2129 15.4053 53.6929 15.512 54.1303 15.512C54.7489 15.512 55.1916 15.32 55.4583 14.936C55.7249 14.552 55.8583 14.0293 55.8583 13.368V12.504C55.8583 11.7893 55.7356 11.2667 55.4903 10.936C55.2556 10.6053 54.9196 10.44 54.4823 10.44ZM58.6815 17V6.12H62.2655C63.4068 6.12 64.2602 6.408 64.8255 6.984C65.4015 7.56 65.6895 8.328 65.6895 9.288V10.136C65.6895 11.096 65.4015 11.8693 64.8255 12.456C64.2602 13.032 63.4068 13.32 62.2655 13.32H60.6015V17H58.6815ZM62.2655 7.96H60.6015V11.48H62.2655C62.7348 11.48 63.0922 11.3627 63.3375 11.128C63.5935 10.8933 63.7215 10.5627 63.7215 10.136V9.288C63.7215 8.872 63.5935 8.54667 63.3375 8.312C63.0922 8.07733 62.7348 7.96 62.2655 7.96ZM72.701 15.16V17H66.429V6.12H68.349V15.16H72.701ZM78.891 6.12L75.563 12.632V17H73.643V12.664L70.283 6.12H72.331L74.683 10.76L76.907 6.12H78.891Z" fill="#A955F7"/>
<path d="M11.5 1C5.7103 1 1 5.7103 1 11.5C1 17.2897 5.7103 22 11.5 22C17.2897 22 22 17.2897 22 11.5C22 5.7103 17.2897 1 11.5 1ZM6.66265 9.45775C6.38883 10.1037 6.24847 10.7984 6.25 11.5H4.15C4.14881 10.5345 4.33845 9.57828 4.70803 8.68631C5.07761 7.79434 5.61984 6.98422 6.30355 6.3025C6.97307 5.6313 7.76649 5.09641 8.6398 4.7275L9.45775 6.6616C8.83195 6.9262 8.27125 7.3042 7.78825 7.7872C7.30525 8.2702 6.92725 8.83195 6.66265 9.45775ZM11.4926 13.6C10.9337 13.6 10.3977 13.378 10.0025 12.9828C9.60732 12.5876 9.3853 12.0516 9.3853 11.4926C9.3853 10.9337 9.60732 10.3977 10.0025 10.0025C10.3977 9.60732 10.9337 9.3853 11.4926 9.3853C12.0516 9.3853 12.5876 9.60732 12.9828 10.0025C13.378 10.3977 13.6 10.9337 13.6 11.4926C13.6 12.0516 13.378 12.5876 12.9828 12.9828C12.5876 13.378 12.0516 13.6 11.4926 13.6Z" fill="#A955F7" stroke="#A955F7"/>
</svg>
